<mxfile host="app.diagrams.net" modified="2023-08-21T16:49:27.635Z" agent="Mozilla/5.0 (Windows NT 10.0; Win64; x64) AppleWebKit/537.36 (KHTML, like Gecko) Chrome/116.0.0.0 Safari/537.36" etag="uifnd9n1fpSTteG80wu5" version="21.6.8" type="google">
  <diagram name="PÃ¡gina-1" id="Nen1jlP2qRGRNxrQoGhk">
    <mxGraphModel grid="1" page="1" gridSize="10" guides="1" tooltips="1" connect="1" arrows="1" fold="1" pageScale="1" pageWidth="1600" pageHeight="1200" math="0" shadow="0">
      <root>
        <mxCell id="0" />
        <mxCell id="1" parent="0" />
        <mxCell id="fZF9z0DAjOUVjfrwqpXS-35" style="edgeStyle=orthogonalEdgeStyle;rounded=0;orthogonalLoop=1;jettySize=auto;html=1;" edge="1" parent="1" source="3K02htG5QdPZY_1kTLBb-1">
          <mxGeometry relative="1" as="geometry">
            <mxPoint x="910" y="125" as="targetPoint" />
          </mxGeometry>
        </mxCell>
        <mxCell id="fZF9z0DAjOUVjfrwqpXS-36" style="edgeStyle=orthogonalEdgeStyle;rounded=0;orthogonalLoop=1;jettySize=auto;html=1;" edge="1" parent="1" source="3K02htG5QdPZY_1kTLBb-1">
          <mxGeometry relative="1" as="geometry">
            <mxPoint x="560" y="125" as="targetPoint" />
          </mxGeometry>
        </mxCell>
        <mxCell id="3K02htG5QdPZY_1kTLBb-1" value="&lt;b&gt;&lt;font style=&quot;font-size: 18px;&quot;&gt;SUPERCLASSES&lt;/font&gt;&lt;/b&gt;" style="text;html=1;strokeColor=none;fillColor=none;align=center;verticalAlign=middle;whiteSpace=wrap;rounded=0;" vertex="1" parent="1">
          <mxGeometry x="650" y="110" width="160" height="30" as="geometry" />
        </mxCell>
        <mxCell id="3K02htG5QdPZY_1kTLBb-23" value="&lt;b&gt;&lt;font style=&quot;font-size: 16px;&quot;&gt;Pessoa&lt;/font&gt;&lt;/b&gt;" style="swimlane;fontStyle=0;childLayout=stackLayout;horizontal=1;startSize=26;fillColor=none;horizontalStack=0;resizeParent=1;resizeParentMax=0;resizeLast=0;collapsible=1;marginBottom=0;html=1;" vertex="1" parent="1">
          <mxGeometry x="170" y="80" width="290" height="430" as="geometry" />
        </mxCell>
        <mxCell id="3K02htG5QdPZY_1kTLBb-25" value="- nome: String&lt;br&gt;- rg: String&lt;br style=&quot;border-color: var(--border-color);&quot;&gt;- cpf: String&lt;br&gt;- endereco: String&lt;br&gt;- telefone: String&lt;br&gt;- email: String" style="text;align=left;verticalAlign=top;spacingLeft=4;spacingRight=4;overflow=hidden;rotatable=0;points=[[0,0.5],[1,0.5]];portConstraint=eastwest;whiteSpace=wrap;html=1;strokeWidth=1;fillColor=none;strokeColor=default;" vertex="1" parent="3K02htG5QdPZY_1kTLBb-23">
          <mxGeometry y="26" width="290" height="124" as="geometry" />
        </mxCell>
        <mxCell id="3K02htG5QdPZY_1kTLBb-26" value="+ setNome(nome: String) : void&lt;br&gt;+ getNome() : String&lt;br&gt;&lt;br&gt;+ setRg(rg: String) : void&lt;br style=&quot;border-color: var(--border-color);&quot;&gt;+ getRg() : String&lt;br style=&quot;border-color: var(--border-color);&quot;&gt;&lt;br style=&quot;border-color: var(--border-color);&quot;&gt;+ setCpf(cpf: String) : void&lt;br style=&quot;border-color: var(--border-color);&quot;&gt;+ getCpf() : String&lt;br&gt;&lt;br&gt;+ setEndereco(endereco: String) : void&lt;br style=&quot;border-color: var(--border-color);&quot;&gt;+ getEndereco() : String&lt;br&gt;&lt;br&gt;+ setTelefone(telefone: String) : void&lt;br style=&quot;border-color: var(--border-color);&quot;&gt;+ getTelefone() : String&lt;br&gt;&lt;br&gt;+ setEmail(email: String) : void&lt;br style=&quot;border-color: var(--border-color);&quot;&gt;+ getEmail() : String" style="text;align=left;verticalAlign=top;spacingLeft=4;spacingRight=4;overflow=hidden;rotatable=0;points=[[0,0.5],[1,0.5]];portConstraint=eastwest;whiteSpace=wrap;html=1;" vertex="1" parent="3K02htG5QdPZY_1kTLBb-23">
          <mxGeometry y="150" width="290" height="280" as="geometry" />
        </mxCell>
        <mxCell id="3K02htG5QdPZY_1kTLBb-27" value="&lt;span style=&quot;font-size: 16px;&quot;&gt;&lt;b&gt;Atividade&lt;/b&gt;&lt;/span&gt;" style="swimlane;fontStyle=0;childLayout=stackLayout;horizontal=1;startSize=26;fillColor=none;horizontalStack=0;resizeParent=1;resizeParentMax=0;resizeLast=0;collapsible=1;marginBottom=0;html=1;" vertex="1" parent="1">
          <mxGeometry x="1040" y="80" width="340" height="420" as="geometry" />
        </mxCell>
        <mxCell id="3K02htG5QdPZY_1kTLBb-28" value="- nome: String&lt;br&gt;- descricao: String&lt;br&gt;- faixaetariaindicada: Int&lt;br&gt;- niveishabilidade: List&lt;br&gt;- turmas: List&lt;br&gt;- horariosdisponiveis: List" style="text;align=left;verticalAlign=top;spacingLeft=4;spacingRight=4;overflow=hidden;rotatable=0;points=[[0,0.5],[1,0.5]];portConstraint=eastwest;whiteSpace=wrap;html=1;strokeWidth=1;fillColor=none;strokeColor=default;" vertex="1" parent="3K02htG5QdPZY_1kTLBb-27">
          <mxGeometry y="26" width="340" height="114" as="geometry" />
        </mxCell>
        <mxCell id="3K02htG5QdPZY_1kTLBb-29" value="+ setNome(nome: String) : void&lt;br&gt;+ getNome() : String&lt;br&gt;&lt;br&gt;+ setDescricao(descricao: String) : void&lt;br style=&quot;border-color: var(--border-color);&quot;&gt;+ getDescricao() : String&lt;br&gt;&lt;br&gt;+ setFaixaetaria(faixaetaria: Int) : void&lt;br style=&quot;border-color: var(--border-color);&quot;&gt;+ getFaixaetaria() : Int&lt;br&gt;&lt;br&gt;+ setNiveishabilidade(niveishabilidade: List) : void&lt;br style=&quot;border-color: var(--border-color);&quot;&gt;+ getNiveishabilidade() : List&lt;br&gt;&lt;br&gt;+ setTurmas(turmas: List) : void&lt;br style=&quot;border-color: var(--border-color);&quot;&gt;+ getTurmas() : List&lt;br&gt;&lt;br&gt;+ setHorariosdisponiveis(horariosdisponiveis: List) : void&lt;br style=&quot;border-color: var(--border-color);&quot;&gt;+ getHorariosdisponiveis) : List" style="text;align=left;verticalAlign=top;spacingLeft=4;spacingRight=4;overflow=hidden;rotatable=0;points=[[0,0.5],[1,0.5]];portConstraint=eastwest;whiteSpace=wrap;html=1;" vertex="1" parent="3K02htG5QdPZY_1kTLBb-27">
          <mxGeometry y="140" width="340" height="280" as="geometry" />
        </mxCell>
        <mxCell id="fZF9z0DAjOUVjfrwqpXS-22" style="edgeStyle=orthogonalEdgeStyle;rounded=0;orthogonalLoop=1;jettySize=auto;html=1;entryX=0.379;entryY=1;entryDx=0;entryDy=0;entryPerimeter=0;" edge="1" parent="1" source="3K02htG5QdPZY_1kTLBb-30" target="3K02htG5QdPZY_1kTLBb-26">
          <mxGeometry relative="1" as="geometry" />
        </mxCell>
        <mxCell id="3K02htG5QdPZY_1kTLBb-30" value="&lt;b&gt;&lt;font style=&quot;font-size: 16px;&quot;&gt;Funcionario&lt;/font&gt;&lt;/b&gt;" style="swimlane;fontStyle=0;childLayout=stackLayout;horizontal=1;startSize=26;fillColor=none;horizontalStack=0;resizeParent=1;resizeParentMax=0;resizeLast=0;collapsible=1;marginBottom=0;html=1;" vertex="1" parent="1">
          <mxGeometry x="41" y="681" width="210" height="170" as="geometry" />
        </mxCell>
        <mxCell id="3K02htG5QdPZY_1kTLBb-31" value="- cargo: String&lt;br&gt;- salario: Double" style="text;align=left;verticalAlign=top;spacingLeft=4;spacingRight=4;overflow=hidden;rotatable=0;points=[[0,0.5],[1,0.5]];portConstraint=eastwest;whiteSpace=wrap;html=1;strokeWidth=1;fillColor=none;strokeColor=default;" vertex="1" parent="3K02htG5QdPZY_1kTLBb-30">
          <mxGeometry y="26" width="210" height="54" as="geometry" />
        </mxCell>
        <mxCell id="3K02htG5QdPZY_1kTLBb-32" value="+ setCargo(cargo: String) : void&lt;br&gt;+ getCargo() : String&lt;br&gt;&lt;br&gt;+ setSalario(salario: Duuble) : void&lt;br style=&quot;border-color: var(--border-color);&quot;&gt;+ getSalario() : Double" style="text;align=left;verticalAlign=top;spacingLeft=4;spacingRight=4;overflow=hidden;rotatable=0;points=[[0,0.5],[1,0.5]];portConstraint=eastwest;whiteSpace=wrap;html=1;" vertex="1" parent="3K02htG5QdPZY_1kTLBb-30">
          <mxGeometry y="80" width="210" height="90" as="geometry" />
        </mxCell>
        <mxCell id="3K02htG5QdPZY_1kTLBb-63" value="&lt;font style=&quot;font-size: 14px;&quot;&gt;&lt;b&gt;Subclasses&lt;/b&gt;&lt;/font&gt;" style="text;html=1;strokeColor=none;fillColor=none;align=center;verticalAlign=middle;whiteSpace=wrap;rounded=0;" vertex="1" parent="1">
          <mxGeometry x="300" y="610" width="60" height="30" as="geometry" />
        </mxCell>
        <mxCell id="fZF9z0DAjOUVjfrwqpXS-23" style="edgeStyle=orthogonalEdgeStyle;rounded=0;orthogonalLoop=1;jettySize=auto;html=1;entryX=0.609;entryY=1.003;entryDx=0;entryDy=0;entryPerimeter=0;" edge="1" parent="1" source="3K02htG5QdPZY_1kTLBb-72" target="3K02htG5QdPZY_1kTLBb-26">
          <mxGeometry relative="1" as="geometry" />
        </mxCell>
        <mxCell id="3K02htG5QdPZY_1kTLBb-72" value="&lt;b&gt;&lt;font style=&quot;font-size: 16px;&quot;&gt;Associado&lt;/font&gt;&lt;/b&gt;" style="swimlane;fontStyle=0;childLayout=stackLayout;horizontal=1;startSize=26;fillColor=none;horizontalStack=0;resizeParent=1;resizeParentMax=0;resizeLast=0;collapsible=1;marginBottom=0;html=1;" vertex="1" parent="1">
          <mxGeometry x="350" y="681" width="360" height="170" as="geometry" />
        </mxCell>
        <mxCell id="3K02htG5QdPZY_1kTLBb-73" value="- carteirinhaassociado: String&lt;br&gt;- dependentes: List" style="text;align=left;verticalAlign=top;spacingLeft=4;spacingRight=4;overflow=hidden;rotatable=0;points=[[0,0.5],[1,0.5]];portConstraint=eastwest;whiteSpace=wrap;html=1;strokeWidth=1;fillColor=none;strokeColor=default;" vertex="1" parent="3K02htG5QdPZY_1kTLBb-72">
          <mxGeometry y="26" width="360" height="54" as="geometry" />
        </mxCell>
        <mxCell id="3K02htG5QdPZY_1kTLBb-74" value="+ setCarteirinhaassociado(carteirinhaassociado: String) : void&lt;br&gt;+ getCarteirinhaassociado() : String&lt;br&gt;&lt;br&gt;+ setDependentes(dependentes: List) : void&lt;br style=&quot;border-color: var(--border-color);&quot;&gt;+ getSDependentes() : List" style="text;align=left;verticalAlign=top;spacingLeft=4;spacingRight=4;overflow=hidden;rotatable=0;points=[[0,0.5],[1,0.5]];portConstraint=eastwest;whiteSpace=wrap;html=1;" vertex="1" parent="3K02htG5QdPZY_1kTLBb-72">
          <mxGeometry y="80" width="360" height="90" as="geometry" />
        </mxCell>
        <mxCell id="fZF9z0DAjOUVjfrwqpXS-25" style="edgeStyle=orthogonalEdgeStyle;rounded=0;orthogonalLoop=1;jettySize=auto;html=1;entryX=0.869;entryY=0.999;entryDx=0;entryDy=0;entryPerimeter=0;" edge="1" parent="1" source="3K02htG5QdPZY_1kTLBb-75" target="3K02htG5QdPZY_1kTLBb-32">
          <mxGeometry relative="1" as="geometry" />
        </mxCell>
        <mxCell id="3K02htG5QdPZY_1kTLBb-75" value="&lt;b&gt;&lt;font style=&quot;font-size: 16px;&quot;&gt;Gerente&lt;/font&gt;&lt;/b&gt;" style="swimlane;fontStyle=0;childLayout=stackLayout;horizontal=1;startSize=26;fillColor=none;horizontalStack=0;resizeParent=1;resizeParentMax=0;resizeLast=0;collapsible=1;marginBottom=0;html=1;" vertex="1" parent="1">
          <mxGeometry x="41" y="890" width="210" height="80" as="geometry" />
        </mxCell>
        <mxCell id="3K02htG5QdPZY_1kTLBb-76" value="+ cadastrarFuncionario&lt;br&gt;+ definirPermissoes" style="text;align=left;verticalAlign=top;spacingLeft=4;spacingRight=4;overflow=hidden;rotatable=0;points=[[0,0.5],[1,0.5]];portConstraint=eastwest;whiteSpace=wrap;html=1;strokeWidth=1;fillColor=none;strokeColor=default;" vertex="1" parent="3K02htG5QdPZY_1kTLBb-75">
          <mxGeometry y="26" width="210" height="54" as="geometry" />
        </mxCell>
        <mxCell id="fZF9z0DAjOUVjfrwqpXS-30" style="edgeStyle=orthogonalEdgeStyle;rounded=0;orthogonalLoop=1;jettySize=auto;html=1;entryX=0.412;entryY=1;entryDx=0;entryDy=0;entryPerimeter=0;" edge="1" parent="1" source="fZF9z0DAjOUVjfrwqpXS-1" target="3K02htG5QdPZY_1kTLBb-29">
          <mxGeometry relative="1" as="geometry" />
        </mxCell>
        <mxCell id="fZF9z0DAjOUVjfrwqpXS-1" value="&lt;span style=&quot;font-size: 16px;&quot;&gt;&lt;b&gt;Turma&lt;/b&gt;&lt;/span&gt;" style="swimlane;fontStyle=0;childLayout=stackLayout;horizontal=1;startSize=26;fillColor=none;horizontalStack=0;resizeParent=1;resizeParentMax=0;resizeLast=0;collapsible=1;marginBottom=0;html=1;" vertex="1" parent="1">
          <mxGeometry x="918" y="680" width="270" height="310" as="geometry" />
        </mxCell>
        <mxCell id="fZF9z0DAjOUVjfrwqpXS-2" value="- Atividade: String&lt;br&gt;- Instrutor: String&lt;br&gt;- Horarios: List&lt;br&gt;- DiasSemana: List" style="text;align=left;verticalAlign=top;spacingLeft=4;spacingRight=4;overflow=hidden;rotatable=0;points=[[0,0.5],[1,0.5]];portConstraint=eastwest;whiteSpace=wrap;html=1;strokeWidth=1;fillColor=none;strokeColor=default;" vertex="1" parent="fZF9z0DAjOUVjfrwqpXS-1">
          <mxGeometry y="26" width="270" height="84" as="geometry" />
        </mxCell>
        <mxCell id="fZF9z0DAjOUVjfrwqpXS-3" value="+ setAtividade(atividade: String) : void&lt;br&gt;+ getAtividade() : String&lt;br&gt;&lt;br&gt;+ setInstrutor(instrutor: String) : void&lt;br&gt;+ getInstrutor() : String&lt;br&gt;&lt;br&gt;+ setHorarios(horarios: List) : void&lt;br style=&quot;border-color: var(--border-color);&quot;&gt;+ getHorarios() : List&lt;br&gt;&lt;br&gt;+ setDiasSemana(diassemana: List) : void&lt;br style=&quot;border-color: var(--border-color);&quot;&gt;+ getDiasSemana() : List" style="text;align=left;verticalAlign=top;spacingLeft=4;spacingRight=4;overflow=hidden;rotatable=0;points=[[0,0.5],[1,0.5]];portConstraint=eastwest;whiteSpace=wrap;html=1;" vertex="1" parent="fZF9z0DAjOUVjfrwqpXS-1">
          <mxGeometry y="110" width="270" height="200" as="geometry" />
        </mxCell>
        <mxCell id="fZF9z0DAjOUVjfrwqpXS-31" style="edgeStyle=orthogonalEdgeStyle;rounded=0;orthogonalLoop=1;jettySize=auto;html=1;entryX=0.618;entryY=1;entryDx=0;entryDy=0;entryPerimeter=0;" edge="1" parent="1" source="fZF9z0DAjOUVjfrwqpXS-4" target="3K02htG5QdPZY_1kTLBb-29">
          <mxGeometry relative="1" as="geometry" />
        </mxCell>
        <mxCell id="fZF9z0DAjOUVjfrwqpXS-4" value="&lt;span style=&quot;font-size: 16px;&quot;&gt;&lt;b&gt;Matricula&lt;/b&gt;&lt;/span&gt;" style="swimlane;fontStyle=0;childLayout=stackLayout;horizontal=1;startSize=26;fillColor=none;horizontalStack=0;resizeParent=1;resizeParentMax=0;resizeLast=0;collapsible=1;marginBottom=0;html=1;" vertex="1" parent="1">
          <mxGeometry x="1259" y="680" width="260" height="210" as="geometry" />
        </mxCell>
        <mxCell id="fZF9z0DAjOUVjfrwqpXS-5" value="- Associado: String&lt;br&gt;- Atividade: String&lt;br&gt;- Faltas: Int" style="text;align=left;verticalAlign=top;spacingLeft=4;spacingRight=4;overflow=hidden;rotatable=0;points=[[0,0.5],[1,0.5]];portConstraint=eastwest;whiteSpace=wrap;html=1;strokeWidth=1;fillColor=none;strokeColor=default;" vertex="1" parent="fZF9z0DAjOUVjfrwqpXS-4">
          <mxGeometry y="26" width="260" height="54" as="geometry" />
        </mxCell>
        <mxCell id="fZF9z0DAjOUVjfrwqpXS-6" value="+ setAssociado(associado: String) : void&lt;br&gt;+ getAssociado() : String&lt;br&gt;&lt;br&gt;+ setAtividade(atividade: String) : void&lt;br style=&quot;border-color: var(--border-color);&quot;&gt;+ getSAtividade() : String&lt;br&gt;&lt;br&gt;+ setFaltas(faltas: Int) : void&lt;br style=&quot;border-color: var(--border-color);&quot;&gt;+ getFaltas() : INt" style="text;align=left;verticalAlign=top;spacingLeft=4;spacingRight=4;overflow=hidden;rotatable=0;points=[[0,0.5],[1,0.5]];portConstraint=eastwest;whiteSpace=wrap;html=1;" vertex="1" parent="fZF9z0DAjOUVjfrwqpXS-4">
          <mxGeometry y="80" width="260" height="130" as="geometry" />
        </mxCell>
        <mxCell id="fZF9z0DAjOUVjfrwqpXS-32" value="&lt;font style=&quot;font-size: 14px;&quot;&gt;&lt;b&gt;Subclasses&lt;/b&gt;&lt;/font&gt;" style="text;html=1;strokeColor=none;fillColor=none;align=center;verticalAlign=middle;whiteSpace=wrap;rounded=0;" vertex="1" parent="1">
          <mxGeometry x="1188" y="600" width="60" height="30" as="geometry" />
        </mxCell>
      </root>
    </mxGraphModel>
  </diagram>
</mxfile>
